<svg width="22" height="22" viewBox="0 0 22 22" fill="none" xmlns="http://www.w3.org/2000/svg">
<path d="M4.03151 5.24674C3.83709 5.24674 3.63244 5.16488 3.48918 5.02163C3.19244 4.72488 3.19244 4.23372 3.48918 3.93698L7.2036 0.222558C7.50035 -0.074186 7.99151 -0.074186 8.28825 0.222558C8.585 0.519302 8.585 1.01047 8.28825 1.30721L4.57383 5.02163C4.42035 5.16488 4.22593 5.24674 4.03151 5.24674Z" fill="#101828"/>
<path d="M17.9685 5.24674C17.7741 5.24674 17.5797 5.17512 17.4262 5.02163L13.7117 1.30721C13.415 1.01047 13.415 0.519302 13.7117 0.222558C14.0085 -0.074186 14.4997 -0.074186 14.7964 0.222558L18.5108 3.93698C18.8076 4.23372 18.8076 4.72488 18.5108 5.02163C18.3676 5.16488 18.1629 5.24674 17.9685 5.24674Z" fill="#101828"/>
<path d="M19.4009 9.56504C19.3293 9.56504 19.2577 9.56504 19.186 9.56504H18.9507H2.81395C2.09767 9.57528 1.27907 9.57528 0.685581 8.98179C0.214884 8.52132 0 7.80504 0 6.75109C0 3.93714 2.05674 3.93714 3.03907 3.93714H18.9609C19.9433 3.93714 22 3.93714 22 6.75109C22 7.81528 21.7851 8.52132 21.3144 8.98179C20.7823 9.51388 20.066 9.56504 19.4009 9.56504ZM3.03907 8.03016H19.1963C19.6567 8.04039 20.0865 8.04039 20.2298 7.89714C20.3014 7.82551 20.4549 7.57993 20.4549 6.75109C20.4549 5.59481 20.1684 5.47202 18.9507 5.47202H3.03907C1.8214 5.47202 1.53488 5.59481 1.53488 6.75109C1.53488 7.57993 1.6986 7.82551 1.76 7.89714C1.90326 8.03016 2.34326 8.03016 2.79349 8.03016H3.03907Z" fill="#101828"/>
<path d="M8.70767 17.444C8.28813 17.444 7.94023 17.0961 7.94023 16.6766V13.044C7.94023 12.6245 8.28813 12.2766 8.70767 12.2766C9.1272 12.2766 9.47511 12.6245 9.47511 13.044V16.6766C9.47511 17.1063 9.1272 17.444 8.70767 17.444Z" fill="#101828"/>
<path d="M13.4147 17.444C12.9952 17.444 12.6473 17.0961 12.6473 16.6766V13.044C12.6473 12.6245 12.9952 12.2766 13.4147 12.2766C13.8343 12.2766 14.1822 12.6245 14.1822 13.044V16.6766C14.1822 17.1063 13.8343 17.444 13.4147 17.444Z" fill="#101828"/>
<path d="M13.9575 21.9975H7.78722C4.12397 21.9975 3.30536 19.818 2.98816 17.9249L1.54536 9.07378C1.47374 8.65424 1.76025 8.26541 2.17978 8.19378C2.59932 8.12215 2.98816 8.40866 3.05978 8.8282L4.50257 17.6691C4.79932 19.4803 5.41327 20.4626 7.78722 20.4626H13.9575C16.5872 20.4626 16.884 19.5417 17.2216 17.7612L18.9407 8.80773C19.0226 8.3882 19.4216 8.11192 19.8412 8.20401C20.2607 8.28587 20.5268 8.68494 20.4449 9.10448L18.7258 18.058C18.3268 20.1352 17.6616 21.9975 13.9575 21.9975Z" fill="#101828"/>
</svg>
