<svg width="21" height="20" viewBox="0 0 21 20" fill="none" xmlns="http://www.w3.org/2000/svg">
<path d="M15.95 0H15C14.61 0 14.29 0.32 14.29 0.71C14.29 1.11 14.61 1.43 15 1.43H15.95C17.66 1.43 19.05 2.82 19.05 4.52V10.4C18.69 10.21 18.29 10.11 17.86 10.11H14.05C12.61 10.11 11.43 11.28 11.43 12.73V14.29H9.05V12.73C9.05 11.28 7.87 10.11 6.43 10.11H2.62C2.19 10.11 1.79 10.21 1.43 10.4V4.52C1.43 2.82 2.82 1.43 4.53 1.43H5.48C5.87 1.43 6.19 1.11 6.19 0.71C6.19 0.32 5.87 0 5.48 0H4.53C2.03 0 0 2.03 0 4.52V12.73V17.38C0 18.83 1.18 20 2.62 20H6.43C7.87 20 9.05 18.83 9.05 17.38V15.71H11.43V17.38C11.43 18.83 12.61 20 14.05 20H17.86C19.3 20 20.48 18.83 20.48 17.38V12.73V4.52C20.48 2.03 18.45 0 15.95 0Z" fill="#101828"/>
</svg>
