<svg width="21" height="15" viewBox="0 0 21 15" fill="none" xmlns="http://www.w3.org/2000/svg">
<path d="M17.789 1.25623C16.4093 0.660909 14.9528 0.238571 13.4566 0C13.2518 0.344938 13.0666 0.699833 12.9016 1.0632C11.3079 0.836865 9.68715 0.836865 8.09342 1.0632C7.92835 0.699871 7.7431 0.34498 7.53845 0C6.0413 0.240585 4.58379 0.663926 3.20267 1.25934C0.460815 5.0825 -0.28246 8.81071 0.0891772 12.486C1.69488 13.6041 3.49212 14.4544 5.40277 15C5.83299 14.4547 6.21368 13.8761 6.5408 13.2705C5.91948 13.0518 5.3198 12.782 4.74869 12.4642C4.89899 12.3615 5.046 12.2556 5.18804 12.1529C6.84984 12.8894 8.6636 13.2713 10.5 13.2713C12.3364 13.2713 14.1501 12.8894 15.8119 12.1529C15.9556 12.2634 16.1026 12.3692 16.2513 12.4642C15.6791 12.7825 15.0783 13.0529 14.4559 13.2721C14.7826 13.8774 15.1633 14.4555 15.5939 15C17.5062 14.4566 19.3048 13.6067 20.9108 12.4875C21.3468 8.2254 20.1659 4.53144 17.789 1.25623ZM7.01155 10.2257C5.97592 10.2257 5.12032 9.33997 5.12032 8.25031C5.12032 7.16065 5.94619 6.26712 7.00824 6.26712C8.0703 6.26712 8.91929 7.16065 8.90112 8.25031C8.88295 9.33997 8.067 10.2257 7.01155 10.2257ZM13.9884 10.2257C12.9511 10.2257 12.0989 9.33997 12.0989 8.25031C12.0989 7.16065 12.9247 6.26712 13.9884 6.26712C15.0521 6.26712 15.8945 7.16065 15.8763 8.25031C15.8582 9.33997 15.0439 10.2257 13.9884 10.2257Z" fill="#FD4561"/>
</svg>
