<svg width="22" height="22" viewBox="0 0 22 22" fill="none" xmlns="http://www.w3.org/2000/svg">
<path d="M10.4884 20.9767C4.70698 20.9767 0 16.2698 0 10.4884C0 4.70698 4.70698 0 10.4884 0C16.2698 0 20.9767 4.70698 20.9767 10.4884C20.9767 16.2698 16.2698 20.9767 10.4884 20.9767ZM10.4884 1.53488C5.54605 1.53488 1.53488 5.55628 1.53488 10.4884C1.53488 15.4205 5.54605 19.4419 10.4884 19.4419C15.4307 19.4419 19.4419 15.4205 19.4419 10.4884C19.4419 5.55628 15.4307 1.53488 10.4884 1.53488Z" fill="#101828"/>
<path d="M21.2325 21.9999C21.0381 21.9999 20.8437 21.9283 20.6902 21.7748L18.6437 19.7283C18.3469 19.4316 18.3469 18.9404 18.6437 18.6437C18.9404 18.3469 19.4316 18.3469 19.7283 18.6437L21.7748 20.6902C22.0716 20.9869 22.0716 21.4781 21.7748 21.7748C21.6213 21.9283 21.4269 21.9999 21.2325 21.9999Z" fill="#101828"/>
</svg>
