<svg width="38" height="38" viewBox="0 0 38 38" fill="none" xmlns="http://www.w3.org/2000/svg">
<g clip-path="url(#clip0_0_16)">
<path d="M24.1397 1.83222L20.4033 0.855469L17.2546 12.3199L14.4119 1.96974L10.6755 2.94649L13.7468 14.1291L6.09683 6.66574L3.3616 9.33426L11.7527 17.5208L1.30292 14.789L0.301758 18.4342L11.7194 21.419C11.5887 20.8689 11.5196 20.2958 11.5196 19.7069C11.5196 15.5384 14.9833 12.1591 19.256 12.1591C23.5287 12.1591 26.9924 15.5384 26.9924 19.7069C26.9924 20.292 26.9241 20.8616 26.795 21.4084L37.1716 24.121L38.1727 20.4758L26.7096 17.4791L37.1601 14.7472L36.1589 11.102L24.6963 14.0984L32.3462 6.6351L29.611 3.96658L21.3363 12.0395L24.1397 1.83222Z" fill="#FD4561"/>
<path d="M26.7847 21.4509C26.4644 22.7722 25.7881 23.9592 24.8601 24.9102L32.3775 32.2443L35.1127 29.5758L26.7847 21.4509Z" fill="#FD4561"/>
<path d="M24.7841 24.9871C23.8449 25.9229 22.6581 26.6212 21.3271 26.9811L24.0626 36.9408L27.7989 35.9641L24.7841 24.9871Z" fill="#FD4561"/>
<path d="M21.1877 27.0177C20.5702 27.1726 19.923 27.2549 19.256 27.2549C18.5414 27.2549 17.8494 27.1603 17.1925 26.9834L14.4546 36.9522L18.1909 37.9289L21.1877 27.0177Z" fill="#FD4561"/>
<path d="M17.0601 26.9462C15.7495 26.5684 14.5838 25.8611 13.6638 24.9226L6.12793 32.2747L8.86316 34.9432L17.0601 26.9462Z" fill="#FD4561"/>
<path d="M13.601 24.8579C12.6968 23.9134 12.0382 22.7423 11.7247 21.4414L1.31421 24.1629L2.31537 27.8081L13.601 24.8579Z" fill="#FD4561"/>
</g>
<defs>
<clipPath id="clip0_0_16">
<rect width="38" height="38" fill="white"/>
</clipPath>
</defs>
</svg>
