<svg width="24" height="24" viewBox="0 0 24 24" fill="none" xmlns="http://www.w3.org/2000/svg">
<path fill-rule="evenodd" clip-rule="evenodd" d="M24 12C24 18.6274 18.6274 24 12 24C5.37258 24 0 18.6274 0 12C0 5.37258 5.37258 0 12 0C18.6274 0 24 5.37258 24 12ZM12.4292 8.85905C11.262 9.34452 8.92928 10.3493 5.43104 11.8734C4.86298 12.0993 4.5654 12.3203 4.53831 12.5364C4.49253 12.9016 4.94986 13.0454 5.57262 13.2412C5.65733 13.2679 5.7451 13.2955 5.83508 13.3247C6.44778 13.5239 7.27197 13.7569 7.70043 13.7662C8.08909 13.7745 8.52287 13.6143 9.00179 13.2855C12.2703 11.0791 13.9575 9.96393 14.0635 9.93989C14.1382 9.92293 14.2417 9.9016 14.3119 9.96397C14.3821 10.0263 14.3752 10.1444 14.3677 10.1761C14.3224 10.3693 12.5273 12.0382 11.5983 12.9019C11.3086 13.1712 11.1032 13.3621 11.0612 13.4058C10.9671 13.5035 10.8713 13.5959 10.7791 13.6847C10.2099 14.2335 9.78306 14.6449 10.8028 15.3169C11.2928 15.6398 11.6849 15.9069 12.0761 16.1732C12.5033 16.4642 12.9294 16.7544 13.4808 17.1158C13.6212 17.2079 13.7554 17.3035 13.886 17.3966C14.3832 17.7511 14.8299 18.0695 15.3817 18.0188C15.7024 17.9892 16.0336 17.6877 16.2018 16.7885C16.5994 14.6633 17.3808 10.0586 17.5614 8.1611C17.5772 7.99485 17.5573 7.78209 17.5413 7.6887C17.5253 7.5953 17.4919 7.46223 17.3705 7.36372C17.2267 7.24706 17.0048 7.22246 16.9055 7.22421C16.4542 7.23216 15.7617 7.47294 12.4292 8.85905Z" fill="#FD4561"/>
</svg>
